<mxfile host="app.diagrams.net" modified="2024-02-04T09:13:02.753Z" agent="Mozilla/5.0 (Windows NT 10.0; Win64; x64) AppleWebKit/537.36 (KHTML, like Gecko) Chrome/121.0.0.0 Safari/537.36 Edg/121.0.0.0" etag="eJmvINtco5ASpihRHREZ" version="23.0.2" type="github">
  <diagram id="TObVRpGsACzpgjtXnppP" name="第 1 页">
    <mxGraphModel dx="1966" dy="1621" grid="1" gridSize="10" guides="1" tooltips="1" connect="1" arrows="1" fold="1" page="0" pageScale="1" pageWidth="827" pageHeight="1169" math="0" shadow="0">
      <root>
        <mxCell id="0" />
        <mxCell id="1" parent="0" />
        <mxCell id="pdnP8gtAgBVlj_PYH2fE-1" value="&lt;font&gt;&lt;font face=&quot;Comic Sans MS&quot;&gt;nomal&lt;/font&gt;&lt;br&gt;&lt;/font&gt;" style="rounded=0;whiteSpace=wrap;html=1;fontSize=16;fillColor=#FAE5C7;strokeColor=#0F8B8D;strokeWidth=2;fontFamily=Comic Sans MS;fontStyle=1;labelBorderColor=none;fontColor=#143642;labelBackgroundColor=none;" parent="1" vertex="1">
          <mxGeometry x="-510" y="-712" width="70" height="31" as="geometry" />
        </mxCell>
        <mxCell id="pdnP8gtAgBVlj_PYH2fE-2" value="visual" style="rounded=0;whiteSpace=wrap;html=1;fontSize=16;fillColor=#FAE5C7;strokeColor=#0F8B8D;strokeWidth=2;fontFamily=Comic Sans MS;fontStyle=1;labelBorderColor=none;fontColor=#143642;labelBackgroundColor=none;" parent="1" vertex="1">
          <mxGeometry x="-406" y="-712" width="62" height="31" as="geometry" />
        </mxCell>
        <mxCell id="pdnP8gtAgBVlj_PYH2fE-3" value="insert" style="rounded=0;whiteSpace=wrap;html=1;fontSize=16;fillColor=#FAE5C7;strokeColor=#0F8B8D;strokeWidth=2;fontFamily=Comic Sans MS;fontStyle=1;labelBorderColor=none;fontColor=#143642;labelBackgroundColor=none;" parent="1" vertex="1">
          <mxGeometry x="-300" y="-712" width="60" height="31" as="geometry" />
        </mxCell>
      </root>
    </mxGraphModel>
  </diagram>
</mxfile>
